<svg xmlns="http://www.w3.org/2000/svg" xmlns:xlink="http://www.w3.org/1999/xlink" width="500" zoomAndPan="magnify" viewBox="0 0 375 374.999991" height="500" preserveAspectRatio="xMidYMid meet" version="1.0"><defs><g/><clipPath id="9e1bb1fe25"><path d="M 142.25 82 L 233 82 L 233 180.992188 L 142.25 180.992188 Z M 142.25 82 " clip-rule="nonzero"/></clipPath><clipPath id="f5fce03056"><path d="M 162 261 L 213 261 L 213 274 L 162 274 Z M 162 261 " clip-rule="nonzero"/></clipPath><clipPath id="0d8cfafd0f"><path d="M 187.5 241.464844 L 213.484375 267.449219 L 187.5 293.4375 L 161.515625 267.449219 Z M 187.5 241.464844 " clip-rule="nonzero"/></clipPath><clipPath id="93811b5b62"><path d="M 187.5 241.464844 L 213.484375 267.449219 L 187.5 293.4375 L 161.515625 267.449219 Z M 187.5 241.464844 " clip-rule="nonzero"/></clipPath></defs><g clip-path="url(#9e1bb1fe25)"><path fill="#ffffff" d="M 232.160156 101.523438 L 217.398438 93.023438 C 217.675781 92.195312 217.859375 91.320312 217.859375 90.398438 C 217.859375 85.773438 214.089844 82.011719 209.457031 82.011719 C 204.824219 82.011719 201.054688 85.773438 201.054688 90.398438 C 201.054688 95.023438 204.824219 98.785156 209.457031 98.785156 C 211.957031 98.785156 214.179688 97.667969 215.722656 95.933594 L 229.636719 103.945312 L 229.636719 127.171875 L 209.472656 138.78125 L 189.308594 127.171875 L 189.308594 102.980469 C 189.308594 102.382812 188.988281 101.828125 188.46875 101.53125 L 166.621094 88.949219 C 166.097656 88.648438 165.460938 88.648438 164.941406 88.949219 L 143.09375 101.53125 C 142.570312 101.828125 142.253906 102.382812 142.253906 102.980469 L 142.253906 128.144531 C 142.253906 128.742188 142.570312 129.296875 143.09375 129.597656 L 164.097656 141.691406 L 164.097656 166.71875 C 164.097656 167.316406 164.417969 167.871094 164.9375 168.171875 L 186.785156 180.75 C 187.042969 180.902344 187.332031 180.976562 187.625 180.976562 C 187.914062 180.976562 188.203125 180.902344 188.464844 180.75 L 203.714844 171.964844 C 205.21875 173.378906 207.230469 174.261719 209.457031 174.261719 C 214.089844 174.261719 217.859375 170.5 217.859375 165.875 C 217.859375 161.25 214.089844 157.488281 209.457031 157.488281 C 204.824219 157.488281 201.054688 161.25 201.054688 165.875 C 201.054688 167.0625 201.3125 168.191406 201.761719 169.214844 L 187.625 177.363281 L 167.457031 165.75 L 167.457031 141.695312 L 187.628906 130.078125 L 208.632812 142.171875 C 208.890625 142.320312 209.179688 142.394531 209.472656 142.394531 C 209.761719 142.394531 210.050781 142.320312 210.3125 142.171875 L 232.160156 129.589844 C 232.679688 129.292969 233 128.738281 233 128.140625 L 233 102.976562 C 233 102.378906 232.679688 101.824219 232.160156 101.523438 Z M 209.457031 95.429688 C 206.679688 95.429688 204.417969 93.171875 204.417969 90.398438 C 204.417969 87.625 206.679688 85.367188 209.457031 85.367188 C 212.238281 85.367188 214.5 87.625 214.5 90.398438 C 214.5 93.171875 212.238281 95.429688 209.457031 95.429688 Z M 209.457031 160.84375 C 212.238281 160.84375 214.5 163.101562 214.5 165.875 C 214.5 168.652344 212.238281 170.90625 209.457031 170.90625 C 206.679688 170.90625 204.417969 168.652344 204.417969 165.875 C 204.417969 163.101562 206.679688 160.84375 209.457031 160.84375 Z M 185.945312 127.175781 L 165.78125 138.785156 L 145.613281 127.175781 L 145.613281 103.953125 L 165.78125 92.339844 L 185.945312 103.953125 Z M 185.945312 127.175781 " fill-opacity="1" fill-rule="nonzero"/></g><g fill="#ffffff" fill-opacity="1"><g transform="translate(121.286533, 215.209733)"><g><path d="M 3.578125 -25.0625 L 21.46875 -25.0625 L 21.46875 -21.46875 L 7.15625 -21.46875 L 7.15625 -14.3125 L 21.46875 -14.3125 L 21.46875 0 L 3.578125 0 L 3.578125 -3.578125 L 17.890625 -3.578125 L 17.890625 -10.734375 L 3.578125 -10.734375 Z M 3.578125 -25.0625 "/></g></g></g><g fill="#ffffff" fill-opacity="1"><g transform="translate(142.761153, 215.209733)"><g><path d="M 3.578125 -25.0625 L 10.734375 -25.0625 L 10.734375 -3.578125 L 14.3125 -3.578125 L 14.3125 0 L 7.15625 0 L 7.15625 -21.46875 L 3.578125 -21.46875 Z M 3.578125 -25.0625 "/></g></g></g><g fill="#ffffff" fill-opacity="1"><g transform="translate(157.077573, 215.209733)"><g><path d="M 3.578125 -17.890625 L 10.734375 -17.890625 L 10.734375 -3.578125 L 14.3125 -3.578125 L 14.3125 0 L 7.15625 0 L 7.15625 -14.3125 L 3.578125 -14.3125 Z M 7.15625 -25.0625 L 10.734375 -25.0625 L 10.734375 -21.46875 L 7.15625 -21.46875 Z M 7.15625 -25.0625 "/></g></g></g><g fill="#ffffff" fill-opacity="1"><g transform="translate(171.393994, 215.209733)"><g><path d="M 3.578125 -17.890625 L 16.890625 -17.890625 L 21.46875 -13.3125 L 21.46875 0 L 17.890625 0 L 17.890625 -11.734375 L 15.3125 -14.3125 L 7.15625 -14.3125 L 7.15625 0 L 3.578125 0 Z M 3.578125 -17.890625 "/></g></g></g><g fill="#ffffff" fill-opacity="1"><g transform="translate(192.868614, 215.209733)"><g><path d="M 3.578125 -17.890625 L 21.46875 -17.890625 L 21.46875 7.15625 L 3.578125 7.15625 L 3.578125 3.578125 L 17.890625 3.578125 L 17.890625 0 L 3.578125 0 Z M 7.15625 -14.3125 L 7.15625 -3.578125 L 17.890625 -3.578125 L 17.890625 -14.3125 Z M 7.15625 -14.3125 "/></g></g></g><g fill="#ffffff" fill-opacity="1"><g transform="translate(214.343233, 215.209733)"><g><path d="M 3.578125 -17.890625 L 21.46875 -17.890625 L 21.46875 -7.15625 L 7.15625 -7.15625 L 7.15625 -3.578125 L 21.46875 -3.578125 L 21.46875 0 L 3.578125 0 Z M 7.15625 -14.3125 L 7.15625 -10.734375 L 17.890625 -10.734375 L 17.890625 -14.3125 Z M 7.15625 -14.3125 "/></g></g></g><g fill="#ffffff" fill-opacity="1"><g transform="translate(235.817853, 215.209733)"><g><path d="M 3.578125 -17.890625 L 7.15625 -17.890625 L 7.15625 -13.3125 L 11.734375 -17.890625 L 17.890625 -17.890625 L 17.890625 -14.3125 L 13.3125 -14.3125 L 7.15625 -8.15625 L 7.15625 0 L 3.578125 0 Z M 3.578125 -17.890625 "/></g></g></g><g fill="#ffffff" fill-opacity="1"><g transform="translate(126.65372, 248.959731)"><g><path d="M 3.578125 -17.890625 L 21.46875 -17.890625 L 21.46875 -14.3125 L 7.15625 -14.3125 L 7.15625 -3.578125 L 21.46875 -3.578125 L 21.46875 0 L 3.578125 0 Z M 3.578125 -17.890625 "/></g></g></g><g fill="#ffffff" fill-opacity="1"><g transform="translate(148.12834, 248.959731)"><g><path d="M 3.578125 -17.890625 L 21.46875 -17.890625 L 21.46875 0 L 3.578125 0 Z M 7.15625 -14.3125 L 7.15625 -3.578125 L 17.890625 -3.578125 L 17.890625 -14.3125 Z M 7.15625 -14.3125 "/></g></g></g><g fill="#ffffff" fill-opacity="1"><g transform="translate(169.60296, 248.959731)"><g><path d="M 17.890625 -25.0625 L 21.46875 -25.0625 L 21.46875 0 L 3.578125 0 L 3.578125 -17.890625 L 17.890625 -17.890625 Z M 7.15625 -14.3125 L 7.15625 -3.578125 L 17.890625 -3.578125 L 17.890625 -14.3125 Z M 7.15625 -14.3125 "/></g></g></g><g fill="#ffffff" fill-opacity="1"><g transform="translate(191.077579, 248.959731)"><g><path d="M 3.578125 -17.890625 L 10.734375 -17.890625 L 10.734375 -3.578125 L 14.3125 -3.578125 L 14.3125 0 L 7.15625 0 L 7.15625 -14.3125 L 3.578125 -14.3125 Z M 7.15625 -25.0625 L 10.734375 -25.0625 L 10.734375 -21.46875 L 7.15625 -21.46875 Z M 7.15625 -25.0625 "/></g></g></g><g fill="#ffffff" fill-opacity="1"><g transform="translate(205.394, 248.959731)"><g><path d="M 3.578125 -17.890625 L 16.890625 -17.890625 L 21.46875 -13.3125 L 21.46875 0 L 17.890625 0 L 17.890625 -11.734375 L 15.3125 -14.3125 L 7.15625 -14.3125 L 7.15625 0 L 3.578125 0 Z M 3.578125 -17.890625 "/></g></g></g><g fill="#ffffff" fill-opacity="1"><g transform="translate(226.868619, 248.959731)"><g><path d="M 3.578125 -17.890625 L 21.46875 -17.890625 L 21.46875 7.15625 L 3.578125 7.15625 L 3.578125 3.578125 L 17.890625 3.578125 L 17.890625 0 L 3.578125 0 Z M 7.15625 -14.3125 L 7.15625 -3.578125 L 17.890625 -3.578125 L 17.890625 -14.3125 Z M 7.15625 -14.3125 "/></g></g></g><g clip-path="url(#f5fce03056)"><g clip-path="url(#0d8cfafd0f)"><g clip-path="url(#93811b5b62)"><path fill="#ffffff" d="M 212.621094 266.585938 L 208.164062 262.128906 C 207.6875 261.652344 206.910156 261.652344 206.433594 262.128906 L 202.335938 266.226562 L 172.664062 266.226562 L 168.566406 262.128906 C 168.089844 261.652344 167.3125 261.652344 166.835938 262.128906 L 162.378906 266.585938 C 161.902344 267.0625 161.902344 267.839844 162.378906 268.316406 L 166.835938 272.773438 C 167.3125 273.25 168.089844 273.25 168.566406 272.773438 L 172.664062 268.675781 L 202.335938 268.675781 L 206.433594 272.773438 C 206.910156 273.25 207.6875 273.25 208.164062 272.773438 L 212.621094 268.316406 C 213.097656 267.839844 213.097656 267.0625 212.621094 266.585938 Z M 167.699219 270.171875 L 164.976562 267.449219 L 167.699219 264.726562 L 170.421875 267.449219 Z M 207.296875 270.171875 L 204.578125 267.453125 L 207.300781 264.730469 L 210.019531 267.449219 Z M 207.296875 270.171875 " fill-opacity="1" fill-rule="nonzero"/></g></g></g></svg>