<svg xmlns="http://www.w3.org/2000/svg" xmlns:xlink="http://www.w3.org/1999/xlink" width="500" zoomAndPan="magnify" viewBox="0 0 375 374.999991" height="500" preserveAspectRatio="xMidYMid meet" version="1.0"><defs><clipPath id="5f1278abc7"><path d="M 142.25 138.046875 L 233 138.046875 L 233 237.046875 L 142.25 237.046875 Z M 142.25 138.046875 " clip-rule="nonzero"/></clipPath></defs><g clip-path="url(#5f1278abc7)"><path fill="#ffffff" d="M 232.160156 157.578125 L 217.398438 149.078125 C 217.675781 148.246094 217.859375 147.375 217.859375 146.449219 C 217.859375 141.828125 214.089844 138.0625 209.457031 138.0625 C 204.824219 138.0625 201.054688 141.828125 201.054688 146.449219 C 201.054688 151.074219 204.824219 154.835938 209.457031 154.835938 C 211.957031 154.835938 214.179688 153.71875 215.722656 151.984375 L 229.636719 160 L 229.636719 183.222656 L 209.472656 194.835938 L 189.308594 183.222656 L 189.308594 159.035156 C 189.308594 158.433594 188.988281 157.882812 188.46875 157.582031 L 166.621094 145 C 166.097656 144.699219 165.460938 144.699219 164.941406 145 L 143.09375 157.582031 C 142.570312 157.882812 142.253906 158.433594 142.253906 159.035156 L 142.253906 184.195312 C 142.253906 184.792969 142.570312 185.347656 143.09375 185.648438 L 164.097656 197.742188 L 164.097656 222.769531 C 164.097656 223.371094 164.417969 223.921875 164.9375 224.222656 L 186.785156 236.804688 C 187.042969 236.953125 187.332031 237.027344 187.625 237.027344 C 187.914062 237.027344 188.203125 236.953125 188.464844 236.804688 L 203.714844 228.015625 C 205.21875 229.429688 207.230469 230.3125 209.457031 230.3125 C 214.089844 230.3125 217.859375 226.550781 217.859375 221.925781 C 217.859375 217.304688 214.089844 213.539062 209.457031 213.539062 C 204.824219 213.539062 201.054688 217.304688 201.054688 221.925781 C 201.054688 223.117188 201.3125 224.242188 201.761719 225.269531 L 187.625 233.414062 L 167.457031 221.800781 L 167.457031 197.746094 L 187.628906 186.128906 L 208.632812 198.222656 C 208.890625 198.375 209.179688 198.449219 209.472656 198.449219 C 209.761719 198.449219 210.050781 198.375 210.3125 198.222656 L 232.160156 185.644531 C 232.679688 185.34375 233 184.789062 233 184.191406 L 233 159.03125 C 233 158.429688 232.679688 157.875 232.160156 157.578125 Z M 209.457031 151.484375 C 206.679688 151.484375 204.417969 149.226562 204.417969 146.449219 C 204.417969 143.675781 206.679688 141.417969 209.457031 141.417969 C 212.238281 141.417969 214.5 143.675781 214.5 146.449219 C 214.5 149.226562 212.238281 151.484375 209.457031 151.484375 Z M 209.457031 216.894531 C 212.238281 216.894531 214.5 219.152344 214.5 221.925781 C 214.5 224.703125 212.238281 226.960938 209.457031 226.960938 C 206.679688 226.960938 204.417969 224.703125 204.417969 221.925781 C 204.417969 219.152344 206.679688 216.894531 209.457031 216.894531 Z M 185.945312 183.226562 L 165.78125 194.839844 L 145.613281 183.226562 L 145.613281 160.003906 L 165.78125 148.390625 L 185.945312 160.003906 Z M 185.945312 183.226562 " fill-opacity="1" fill-rule="nonzero"/></g></svg>